<?xml version="1.0" encoding="UTF-8" standalone="no"?>
<svg width="200px" height="200px" viewBox="0 0 200 200" version="1.1" xmlns="http://www.w3.org/2000/svg" xmlns:xlink="http://www.w3.org/1999/xlink" xmlns:sketch="http://www.bohemiancoding.com/sketch/ns">
    <!-- Generator: Sketch 3.3 (11970) - http://www.bohemiancoding.com/sketch -->
    <title>aircon 2</title>
    <desc>Created with Sketch.</desc>
    <defs>
        <rect id="path-1" x="0" y="0" width="200" height="200"></rect>
        <linearGradient x1="41.715072%" y1="100%" x2="60.9101015%" y2="22.8670009%" id="linearGradient-3">
            <stop stop-color="#000000" stop-opacity="0" offset="0%"></stop>
            <stop stop-color="#000000" stop-opacity="0.1" offset="100%"></stop>
        </linearGradient>
    </defs>
    <g id="Page-1" stroke="none" stroke-width="1" fill="none" fill-rule="evenodd" sketch:type="MSPage">
        <g id="aircon-2" sketch:type="MSLayerGroup">
            <mask id="mask-2" sketch:name="Rectangle 185" fill="white">
                <use xlink:href="#path-1"></use>
            </mask>
            <use id="Rectangle-185" stroke="#8BC34A" stroke-width="0.1" sketch:type="MSShapeGroup" xlink:href="#path-1"></use>
            <path d="M13.1378137,43.5931398 L187.669073,110.305787 L84.3811035,239.849854 L-101.875616,186.268925 L13.1378137,43.5931398 Z" id="Rectangle-20" fill="url(#linearGradient-3)" sketch:type="MSShapeGroup" mask="url(#mask-2)"></path>
            <g id="Group-9" mask="url(#mask-2)">
                <g transform="translate(10.000000, 43.750000)">
                    <g id="AC-unit-8" stroke-width="1" fill="none" sketch:type="MSLayerGroup">
                        <path d="M0.0535582004,8.47108859 L2.77052233,0 L178.467536,0 L181.1845,8.47108859 L181.1845,60.7452832 C181.1845,66.2717015 176.707081,70.7517487 171.188108,70.7517487 L10.0499503,70.7517487 C4.52909539,70.7517487 0.0535582004,66.2726772 0.0535582004,60.7452832 L0.0535582004,8.47108859 Z" id="Rectangle-27" fill="#FFFFFF" sketch:type="MSShapeGroup"></path>
                        <path d="M2.44454929,43.010408 L178.637817,43.010408 L178.637817,55.2281452 C178.637817,61.9758151 173.171495,67.4458823 166.423001,67.4458823 L14.6593651,67.4458823 C7.9133086,67.4458823 2.44454929,61.9772987 2.44454929,55.2281452 L2.44454929,43.010408 Z" id="Path" fill="#BDC3C7" sketch:type="MSShapeGroup"></path>
                        <path d="M10.9564776,55.2281452 C10.9564776,50.400544 14.8713655,46.4869999 19.6984155,46.4869999 L161.389139,46.4869999 C166.217178,46.4869999 170.131077,50.4103672 170.131077,55.2281452 L170.131077,55.2281452 C170.131077,60.0557464 166.216189,63.9692905 161.389139,63.9692905 L19.6984155,63.9692905 C14.8703765,63.9692905 10.9564776,60.0459232 10.9564776,55.2281452 L10.9564776,55.2281452 Z" id="Path-7" fill="#7F8C8D" sketch:type="MSShapeGroup"></path>
                        <path d="M21.4768383,57.2147691 C21.4768383,55.8981506 22.5485703,54.8308204 23.8596549,54.8308204 L157.216117,54.8308204 C158.53211,54.8308204 159.598933,55.8889714 159.598933,57.2147691 L159.598933,57.2147691 C159.598933,58.5313876 158.527202,59.5987178 157.216117,59.5987178 L23.8596549,59.5987178 C22.5436616,59.5987178 21.4768383,58.5405669 21.4768383,57.2147691 L21.4768383,57.2147691 Z" id="Path-8" fill="#3498DB" sketch:type="MSShapeGroup"></path>
                        <path d="M7.51345039,8.44315169 C7.51344992,8.44315168 173.563236,8.44315169 173.563238,8.44315169 C176.88111,10.8271004 173.563238,13.2110491 173.563238,13.2110491 L7.51345039,13.2110491 C7.51345039,13.2110491 4.03259231,10.8271004 7.51345039,8.44315169 Z" id="Path" fill="#2C3E50" sketch:type="MSShapeGroup"></path>
                    </g>
                    <path d="M97.8441609,80.8214919 C97.8441609,78.8846722 99.4170935,77.3145695 101.348608,77.3145695 C103.284061,77.3145695 104.853055,78.8739064 104.853055,80.8214919 L104.853055,103.993078 C104.853055,105.929897 103.280122,107.5 101.348608,107.5 C99.4131552,107.5 97.8441609,105.940663 97.8441609,103.993078 L97.8441609,80.8214919 Z M119.011021,80.8150772 C119.011021,78.8818002 120.583954,77.3145695 122.515468,77.3145695 C124.450921,77.3145695 126.019915,78.8870428 126.019915,80.8150772 L126.019915,88.9067771 C126.019915,90.8400541 124.446982,92.4072848 122.515468,92.4072848 C120.580015,92.4072848 119.011021,90.8348115 119.011021,88.9067771 L119.011021,80.8150772 Z M55.7207077,80.8150772 C55.7207077,78.8818002 57.2936403,77.3145695 59.2251547,77.3145695 C61.1606073,77.3145695 62.7296017,78.8870428 62.7296017,80.8150772 L62.7296017,88.9067771 C62.7296017,90.8400541 61.1566691,92.4072848 59.2251547,92.4072848 C57.289702,92.4072848 55.7207077,90.8348115 55.7207077,88.9067771 L55.7207077,80.8150772 Z M76.6773009,80.8214919 C76.6773009,78.8846722 78.2502335,77.3145695 80.1817479,77.3145695 C82.1172005,77.3145695 83.6861949,78.8739064 83.6861949,80.8214919 L83.6861949,103.993078 C83.6861949,105.929897 82.1132623,107.5 80.1817479,107.5 C78.2462952,107.5 76.6773009,105.940663 76.6773009,103.993078 L76.6773009,80.8214919 Z" id="Rectangle-144" fill="#FFFFFF" sketch:type="MSShapeGroup"></path>
                </g>
            </g>
        </g>
    </g>
</svg>