<?xml version="1.0" encoding="UTF-8" standalone="no"?>
<svg width="50px" height="36px" viewBox="0 0 50 36" version="1.1" xmlns="http://www.w3.org/2000/svg" xmlns:xlink="http://www.w3.org/1999/xlink" xmlns:sketch="http://www.bohemiancoding.com/sketch/ns">
    <!-- Generator: Sketch 3.3 (11970) - http://www.bohemiancoding.com/sketch -->
    <title>cloudy</title>
    <desc>Created with Sketch.</desc>
    <defs></defs>
    <g id="Dashboard-V4.0-" stroke="none" stroke-width="1" fill="none" fill-rule="evenodd" sketch:type="MSPage">
        <g id="01.01-Dashboard---Desktop" sketch:type="MSArtboardGroup" transform="translate(-17.000000, -395.000000)">
            <g id="Good-evening--+-Button-+-Weather" sketch:type="MSLayerGroup" transform="translate(10.000000, 239.500000)">
                <g id="Weather" transform="translate(7.000000, 156.000000)" sketch:type="MSShapeGroup">
                    <g id="cloudy">
                        <path d="M40.5742456,31.7575758 C44.0319197,31.7575758 46.8349182,29.014001 46.8349182,25.6296296 C46.8349182,22.2452583 44.0319197,19.5016835 40.5742456,19.5016835 C37.4202331,19.5016835 34.8109552,21.7845235 34.3769747,24.7542088 L34.3386683,24.7542088 C34.3220573,24.5675552 34.313573,24.3785529 34.313573,24.1875611 C34.313573,20.8083853 36.9694565,18.0520058 40.2997934,17.9077782 C39.1475133,12.8097598 34.5023447,8.996633 28.9472822,8.996633 C24.3243175,8.996633 20.3315174,11.6374877 18.4576203,15.46202 C20.0710957,16.1227946 21.2047279,17.6826586 21.2047279,19.5016835 C21.2047279,20.1704148 21.0515139,20.8041197 20.7775707,21.3710024 C20.714945,18.8135023 18.5638042,16.7589897 15.91931,16.7589897 C13.9578869,16.7589897 12.2678674,17.8892179 11.500116,19.5166144 C11.354606,19.5067155 11.2077265,19.5016835 11.0596463,19.5016835 C7.60197215,19.5016835 4.79897373,22.2452583 4.79897373,25.6296296 C4.79897373,29.014001 7.60197215,31.7575758 11.0596463,31.7575758 L40.5742402,31.7575758 Z" id="Cloud" stroke="#FFFFFF" stroke-width="3"></path>
                        <g id="Sun" transform="translate(0.087776, 0.218855)" fill="#FFFFFF">
                            <path d="M22.6340034,9.02676862 C21.0294694,7.77503404 18.996667,7.02693603 16.7853523,7.02693603 C11.5988411,7.02693603 7.39434348,11.1422982 7.39434348,16.2188552 C7.39434348,17.0115958 7.49687036,17.7808976 7.68965322,18.5147498 L9.13561778,18.1885522 L9.43967098,18.1428243 C9.27231826,17.5291192 9.18310708,16.8841846 9.18310708,16.2188552 C9.18310708,12.1092614 12.586748,8.77777778 16.7853523,8.77777778 C18.3663194,8.77777778 19.8345711,9.2501381 21.0508323,10.0585361 L22.6340034,9.02676862 Z" id="Oval-16"></path>
                            <path d="M17.2325432,0.0235690236 C16.7385898,0.0235690236 16.3381614,0.427510785 16.3381614,0.909341408 L16.3381614,3.51490102 C16.3381614,4.0040996 16.7351461,4.4006734 17.2325432,4.4006734 C17.7264967,4.4006734 18.126925,3.99673164 18.126925,3.51490102 L18.126925,0.909341408 C18.126925,0.420142828 17.7299404,0.0235690236 17.2325432,0.0235690236 Z M25.7145067,2.25433829 C25.2867305,2.00736158 24.7379785,2.15697122 24.4970631,2.57424878 L23.1942833,4.83072959 C22.949684,5.25438799 23.0951959,5.79632329 23.5259545,6.04502188 C23.9537307,6.29199859 24.5024827,6.14238895 24.743398,5.72511139 L26.0461779,3.46863058 C26.2907771,3.04497218 26.1452653,2.50303688 25.7145067,2.25433829 Z M0.268616346,16.6742575 C0.268616346,17.168211 0.672558108,17.5686393 1.15438873,17.5686393 L3.75994834,17.5686393 C4.24914692,17.5686393 4.64572072,17.1716547 4.64572072,16.6742575 C4.64572072,16.1803041 4.24177896,15.7798757 3.75994834,15.7798757 L1.15438873,15.7798757 C0.665190151,15.7798757 0.268616346,16.1768604 0.268616346,16.6742575 Z M2.5413516,8.34891328 C2.29437489,8.77668949 2.44398453,9.32544152 2.86126209,9.56635683 L5.1177429,10.8691366 C5.5414013,11.1137359 6.0833366,10.9682241 6.33203519,10.5374655 C6.5790119,10.1096893 6.42940226,9.56093723 6.0121247,9.32002192 L3.75564389,8.01724211 C3.33198549,7.77264282 2.79005019,7.91815469 2.5413516,8.34891328 Z M8.75057979,2.25433829 C8.32280358,2.50131501 8.17799332,3.05135302 8.41890863,3.46863058 L9.72168843,5.72511139 C9.96628772,6.14876979 10.5083734,6.29372047 10.939132,6.04502188 C11.3669082,5.79804517 11.5117185,5.24800715 11.2708031,4.83072959 L9.96802334,2.57424878 C9.72342405,2.15059038 9.18133839,2.0056397 8.75057979,2.25433829 Z" id="Rectangle-69"></path>
                        </g>
                    </g>
                </g>
            </g>
        </g>
    </g>
</svg>