<?xml version="1.0" encoding="UTF-8" standalone="no"?>
<svg width="21px" height="20px" viewBox="0 0 21 20" version="1.1" xmlns="http://www.w3.org/2000/svg" xmlns:xlink="http://www.w3.org/1999/xlink" xmlns:sketch="http://www.bohemiancoding.com/sketch/ns">
    <!-- Generator: Sketch 3.3 (11970) - http://www.bohemiancoding.com/sketch -->
    <title>info button</title>
    <desc>Created with Sketch.</desc>
    <defs></defs>
    <g id="Dashboard-V4.0-" stroke="none" stroke-width="1" fill="none" fill-rule="evenodd" sketch:type="MSPage">
        <g id="01.04-Dashboard---Tablet" sketch:type="MSArtboardGroup" transform="translate(-799.000000, -512.000000)" fill="#9B9B9B">
            <g id="How-you-compare" sketch:type="MSLayerGroup" transform="translate(50.000000, 431.000000)">
                <g id="fa-info-circle" transform="translate(749.086939, 80.000000)" sketch:type="MSShapeGroup">
                    <path d="M5.651,18.921 C7.132,19.774 8.748,20.201 10.499,20.201 C12.227,20.201 13.844,19.774 15.325,18.921 C16.784,18.046 17.951,16.879 18.826,15.42 C19.679,13.938 20.106,12.322 20.106,10.594 C20.106,8.843 19.679,7.227 18.826,5.768 C17.951,4.287 16.784,3.142 15.325,2.266 C13.844,1.414 12.227,0.987 10.499,0.987 C8.748,0.987 7.132,1.414 5.651,2.266 C4.192,3.142 3.025,4.287 2.149,5.768 C1.296,7.227 0.87,8.843 0.87,10.594 C0.87,12.322 1.296,13.938 2.149,15.42 C3.025,16.879 4.192,18.046 5.651,18.921 L5.651,18.921 Z M7.402,14.297 C7.469,14.23 7.581,14.185 7.693,14.185 L8.883,14.185 L8.883,10.19 L7.693,10.19 C7.581,10.19 7.469,10.145 7.402,10.078 C7.334,9.988 7.289,9.898 7.289,9.786 L7.289,7.788 C7.289,7.676 7.334,7.564 7.402,7.496 C7.469,7.429 7.581,7.384 7.693,7.384 L11.689,7.384 C11.824,7.384 11.913,7.429 11.981,7.496 C12.07,7.564 12.093,7.676 12.093,7.788 L12.093,14.185 L13.305,14.185 C13.417,14.185 13.507,14.23 13.597,14.297 C13.664,14.387 13.709,14.477 13.709,14.589 L13.709,16.587 C13.709,16.699 13.664,16.811 13.597,16.879 C13.507,16.946 13.417,16.991 13.305,16.991 L7.693,16.991 C7.581,16.991 7.469,16.946 7.402,16.879 C7.334,16.811 7.289,16.699 7.289,16.587 L7.289,14.589 C7.289,14.477 7.334,14.387 7.402,14.297 Z M8.883,3.389 C8.883,3.277 8.928,3.164 8.995,3.097 C9.063,3.03 9.175,2.985 9.287,2.985 L11.689,2.985 C11.801,2.985 11.891,3.03 11.981,3.097 C12.048,3.164 12.093,3.277 12.093,3.389 L12.093,5.386 C12.093,5.499 12.048,5.611 11.981,5.678 C11.891,5.746 11.801,5.79 11.689,5.79 L9.287,5.79 C9.175,5.79 9.063,5.746 8.995,5.678 C8.928,5.611 8.883,5.499 8.883,5.386 L8.883,3.389 L8.883,3.389 Z" id="info-button"></path>
                </g>
            </g>
        </g>
    </g>
</svg>