<?xml version="1.0" encoding="UTF-8" standalone="no"?>
<svg width="200px" height="200px" viewBox="0 0 200 200" version="1.1" xmlns="http://www.w3.org/2000/svg" xmlns:xlink="http://www.w3.org/1999/xlink" xmlns:sketch="http://www.bohemiancoding.com/sketch/ns">
    <!-- Generator: Sketch 3.3 (11970) - http://www.bohemiancoding.com/sketch -->
    <title>lighting</title>
    <desc>Created with Sketch.</desc>
    <defs>
        <rect id="path-1" x="4.54747351e-12" y="0" width="200" height="200"></rect>
        <linearGradient x1="41.715072%" y1="100%" x2="60.9101015%" y2="22.8670009%" id="linearGradient-3">
            <stop stop-color="#000000" stop-opacity="0" offset="0%"></stop>
            <stop stop-color="#000000" stop-opacity="0.1" offset="100%"></stop>
        </linearGradient>
    </defs>
    <g id="Page-1" stroke="none" stroke-width="1" fill="none" fill-rule="evenodd" sketch:type="MSPage">
        <g id="lighting" sketch:type="MSLayerGroup">
            <mask id="mask-2" sketch:name="Rectangle 190" fill="white">
                <use xlink:href="#path-1"></use>
            </mask>
            <use id="Rectangle-190" stroke="#979797" stroke-width="0.1" sketch:type="MSShapeGroup" xlink:href="#path-1"></use>
            <rect id="Rectangle-191" sketch:type="MSShapeGroup" mask="url(#mask-2)" x="0" y="190" width="200" height="10"></rect>
            <g id="Group" mask="url(#mask-2)">
                <g transform="translate(-37.500000, 30.000000)">
                    <path d="M35.8798165,96.1332882 C60.8540815,65.3819903 110.802611,3.8793946 110.802611,3.8793946 L128.32672,32.6293946 L134.558105,44.7656251 L129.405212,51.2500001 L137.373962,52.7343751 L138.780212,61.3281251 L153.43689,63.7493897 L151.56189,74.2181397 L151.56189,92.6556397 L171.40564,104.84314 L64.5306397,237.34314 L0.624389695,132.34314 C0.624389695,132.34314 28.3988409,105.344759 35.8798165,96.1332882 Z" id="Rectangle-31" fill="url(#linearGradient-3)" sketch:type="MSShapeGroup"></path>
                    <g id="Group-2" stroke-width="1" fill="none" sketch:type="MSLayerGroup" transform="translate(101.250000, 32.500000)">
                        <path d="M38.74043,0.0995724893 C38.74043,0.0995724893 39.1019401,9.87779934 45.4599729,14.1122677 C51.8180057,18.3467361 63.8137861,15.01371 63.8137861,15.01371 L63.8137861,8.1836206 C63.8137861,8.1836206 56.9225742,11.5691936 51.8209062,9.08506291 C46.7192381,6.60093218 46.407364,0 46.407364,0 L38.74043,0.0995724893 Z" id="Path-17" fill="#FFFFFF" sketch:type="MSShapeGroup"></path>
                        <path d="M68.7539787,64.0180807 C68.7539787,64.0180807 5.61424093,51.6886979 5.61424093,51.6886979 C-1.27815454,54.5437936 4.57350171,59.8874377 4.57350171,59.8874377 L67.7132394,72.2168205 C73.1252853,69.0726549 68.7539787,64.0180807 68.7539787,64.0180807 L68.7539787,64.0180807 L68.7539787,64.0180807 Z" id="Rectangle-72" fill="#BDC3C7" sketch:type="MSShapeGroup"></path>
                        <path d="M68.9270166,45.1935025 C68.9270166,45.1935025 4.44098591,32.9346759 4.44098591,32.9346759 C-2.60311519,35.7977221 3.36856965,41.1350757 3.36856965,41.1350757 L67.8546004,53.3939024 C73.3867872,50.2434405 68.9270166,45.1935025 68.9270166,45.1935025 L68.9270166,45.1935025 L68.9270166,45.1935025 Z" id="Rectangle-73" fill="#BDC3C7" sketch:type="MSShapeGroup"></path>
                        <path d="M68.9270166,26.4435025 C68.9270166,26.4435025 4.44098591,14.1846759 4.44098591,14.1846759 C-2.60311519,17.0477221 3.36856965,22.3850757 3.36856965,22.3850757 L67.8546004,34.6439024 C73.3867872,31.4934405 68.9270166,26.4435025 68.9270166,26.4435025 L68.9270166,26.4435025 L68.9270166,26.4435025 Z" id="Rectangle-74" fill="#BDC3C7" sketch:type="MSShapeGroup"></path>
                        <path d="M45.4954616,72.7016249 C45.4954616,72.7016249 6.80662902,71.1846736 6.80662902,71.1846736 C2.78867912,74.6807712 6.57963848,78.4830486 6.57963848,78.4830486 L45.268471,80 C48.3793377,76.4683365 45.4954616,72.7016249 45.4954616,72.7016249 L45.4954616,72.7016249 Z" id="Rectangle-70" fill="#95A5A6" sketch:type="MSShapeGroup"></path>
                        <path d="M1.20294121,0.0995724893 C1.20294121,0.0995724893 -1.46893379,13.5922747 8.81310908,19.5209215 C19.0951519,25.4495684 28.9926933,23.4697192 32.3754808,22.5158691 C37.4536058,18.3752441 33.9665488,13.5922747 29.8387972,13.5922744 C29.8387956,13.5922747 21.2403508,16.5280058 14.2834173,13.5922744 C7.32648384,10.6565431 8.86987519,1.0658141e-13 8.86987519,1.0658141e-13 L1.20294121,0.0995724893 Z" id="Path-18" fill="#FFFFFF" sketch:type="MSShapeGroup" transform="translate(17.895199, 11.806926) scale(-1, 1) translate(-17.895199, -11.806926) "></path>
                        <path d="M65.8588797,7.44032978 C73.624058,8.2030634 69.3806443,15.838106 69.3806443,15.838106 L5.82747253,41.8271223 C-2.43621835,39.9349987 2.30570792,33.4293461 2.30570792,33.4293461 C2.30570792,33.4293461 65.8588797,7.4403298 65.8588797,7.44032978 Z" id="Rectangle-61" fill="#FFFFFF" sketch:type="MSShapeGroup"></path>
                        <path d="M2.30570792,51.6864055 C2.30570792,51.6864055 65.8588797,25.6973892 65.8588797,25.6973892 C73.624058,26.4601228 69.3806443,34.0951654 69.3806443,34.0951654 L5.82747253,60.0841817 C-0.447662857,58.7121197 2.30570792,51.6864055 2.30570792,51.6864055 L2.30570792,51.6864055 Z" id="Rectangle-62" fill="#FFFFFF" sketch:type="MSShapeGroup"></path>
                        <path d="M65.8588797,43.9544486 C73.8165271,45.4794312 69.3806443,52.3522248 69.3806443,52.3522248 L5.82747253,78.3412411 C-1.48773199,76.2628173 2.30570792,69.9434649 2.30570792,69.9434649 C2.30570792,69.9434649 65.8588797,43.9544486 65.8588797,43.9544486 Z" id="Rectangle-63" fill="#FFFFFF" sketch:type="MSShapeGroup"></path>
                        <path d="M67.5581033,63.5595344 C72.4792663,65.9967257 69.9689785,72.340587 69.9689785,72.340587 L30.4087061,83.1194973 C22.5030518,80.4873652 27.997831,74.3384447 27.997831,74.3384447 C27.997831,74.3384447 67.5581033,63.5595344 67.5581033,63.5595344 L67.5581033,63.5595344 Z" id="Rectangle-64" fill="#FFFFFF" sketch:type="MSShapeGroup"></path>
                    </g>
                    <ellipse id="Path-6" fill="#7F8C8D" sketch:type="MSShapeGroup" cx="138.125" cy="6.25" rx="6.22340426" ry="6.25"></ellipse>
                    <path d="M110.646552,3.75 L165.603448,3.75 L170,32.5 L106.25,32.5 L110.646552,3.75 Z" id="Path-5" fill="#7F8C8D" sketch:type="MSShapeGroup"></path>
                </g>
            </g>
        </g>
    </g>
</svg>