<?xml version="1.0" encoding="iso-8859-1"?>
<!-- Generator: Adobe Illustrator 16.0.0, SVG Export Plug-In . SVG Version: 6.00 Build 0)  -->
<!DOCTYPE svg PUBLIC "-//W3C//DTD SVG 1.1//EN" "http://www.w3.org/Graphics/SVG/1.1/DTD/svg11.dtd">
<svg version="1.1" id="&#x56FE;&#x5C42;_1" xmlns="http://www.w3.org/2000/svg" xmlns:xlink="http://www.w3.org/1999/xlink" x="0px"
	 y="0px" width="1650.751px" height="225.022px" viewBox="245.249 12.308 1650.751 225.022"
	 style="enable-background:new 245.249 12.308 1650.751 225.022;" xml:space="preserve">
<g id="&#x56FE;&#x5C42;_1_1_">
	<g>
		<g>
			<g>
				<g>
					<rect id="SVGID_1_" x="1302.184" y="30.135" style="fill:#A7A7A7;" width="553.977" height="195.266"/>
				</g>
				<g>
					<defs>
						<rect id="SVGID_2_" x="1302.184" y="30.135" width="553.977" height="195.266"/>
					</defs>
					<clipPath id="SVGID_3_">
						<use xlink:href="#SVGID_2_"  style="overflow:visible;"/>
					</clipPath>
					<g transform="matrix(1 0 0 1 1.220703e-04 3.814697e-06)" style="clip-path:url(#SVGID_3_);">
					</g>
				</g>
			</g>
		</g>
		<path style="fill:#A3CA0F;" d="M948.907,202.494V188.05h20.832c6.071,0,9.107-2.87,9.107-8.606
			c-3.369,2.428-8.655,3.643-15.873,3.643c-5.049,0-9.422-1.257-13.117-3.771c-3.698-2.51-5.548-5.799-5.548-9.866V98.811
			c0-10.727,6.823-16.092,20.472-16.092c3.604,0,8.355,1.441,14.249,4.32l3.332-3.566h22.07v96.859
			c0,6.372-1.339,11.66-4.013,15.863c-2.672,4.197-10.979,6.299-24.921,6.299H948.907L948.907,202.494z M978.848,164.309v-61.892
			c0-3-1.479-4.5-4.432-4.5c-3.016,0-4.523,1.5-4.523,4.5v61.722c0,3,1.509,4.5,4.523,4.5
			C977.369,168.641,978.848,167.195,978.848,164.309L978.848,164.309z"/>
		<path style="fill:#A3CA0F;" d="M1070.799,124.136h-25.583v-21.289c0-2.987-1.495-4.479-4.477-4.479
			c-2.987,0-4.479,1.438-4.479,4.317v79.043h-25.583V83.472h25.583V86.7c3.427-2.652,8.718-3.981,15.873-3.981
			c5.11,0,9.497,1.286,13.165,3.855c3.667,2.569,5.501,5.943,5.501,10.121V124.136L1070.799,124.136z"/>
		<path style="fill:#A3CA0F;" d="M1135.568,140.049h-34.379v22.861c0,3.318,1.479,4.977,4.44,4.977c2.901,0,4.354-1.654,4.354-4.97
			V143.21h25.585v19.979c0,13.265-10.039,19.896-30.117,19.896c-19.897,0-29.846-6.917-29.846-20.75v-58.863
			c0-13.833,9.947-20.752,29.846-20.752c20.078,0,30.117,6.636,30.117,19.901V140.049L1135.568,140.049z M1109.983,125.303v-22.552
			c0-3.222-1.45-4.834-4.354-4.834c-2.962,0-4.44,1.613-4.44,4.834v22.552H1109.983L1109.983,125.303z"/>
		<path style="fill:#A3CA0F;" d="M1201.317,140.049h-34.38v22.861c0,3.318,1.479,4.977,4.442,4.977c2.901,0,4.354-1.654,4.354-4.97
			V143.21h25.584v19.979c0,13.265-10.04,19.896-30.116,19.896c-19.897,0-29.848-6.917-29.848-20.75v-58.863
			c0-13.833,9.948-20.752,29.848-20.752c20.076,0,30.116,6.636,30.116,19.901V140.049L1201.317,140.049z M1175.732,125.303v-22.552
			c0-3.222-1.451-4.834-4.354-4.834c-2.963,0-4.441,1.613-4.441,4.834v22.552H1175.732L1175.732,125.303z"/>
		<path style="fill:#A3CA0F;" d="M1267.064,181.729h-25.584v-78.875c0-2.991-1.493-4.486-4.479-4.486s-4.479,1.438-4.479,4.317
			v79.043h-25.582V83.472h25.582V86.7c3.428-2.652,8.719-3.981,15.875-3.981c4.627,0,8.896,1.188,12.805,3.559
			c3.904,2.372,5.859,5.844,5.859,10.417v85.034H1267.064z"/>
		<polygon style="fill:#FFFFFF;" points="1399.864,181.999 1371.27,181.999 1356.423,148.715 1356.423,181.999 1332.205,181.999 
			1332.205,68.32 1356.423,68.32 1356.423,119.354 1368.794,90.014 1393.96,90.014 1376.355,130.262 		"/>
		<path style="fill:#FFFFFF;" d="M1403.118,163.84v-55.104c0-12.952,9.61-19.426,28.839-19.426c7.43,0,13.965,1.507,19.608,4.521
			c5.644,3.014,8.466,7.716,8.466,14.112v56.69c0,12.422-9.36,18.635-28.074,18.635
			C1412.729,183.268,1403.118,176.792,1403.118,163.84L1403.118,163.84z M1435.812,164.366v-56.315c0-3.008-1.4-4.514-4.196-4.514
			c-2.854,0-4.281,1.506-4.281,4.514v56.315c0,3.116,1.427,4.673,4.281,4.673C1434.412,169.039,1435.812,167.482,1435.812,164.366
			L1435.812,164.366z"/>
		<path style="fill:#FFFFFF;" d="M1521.719,181.999h-24.217v-73.84c0-2.799-1.415-4.2-4.239-4.2c-2.825,0-4.239,1.348-4.239,4.042
			v73.998h-24.217V90.014h24.217v3.022c3.244-2.484,8.255-3.727,15.025-3.727c4.38,0,8.421,1.111,12.123,3.33
			c3.698,2.221,5.547,5.472,5.547,9.752V181.999L1521.719,181.999z"/>
		<path style="fill:#FFFFFF;" d="M1583.786,130.671h-24.218v-22.612c0-3.015-1.398-4.522-4.194-4.522
			c-2.854,0-4.281,1.506-4.281,4.514v56.315c0,3.116,1.427,4.673,4.281,4.673c2.796,0,4.194-1.549,4.194-4.653v-22.163h24.218
			v22.424c0,12.414-9.358,18.621-28.072,18.621c-19.228,0-28.839-6.476-28.839-19.427v-55.104c0-12.952,9.611-19.426,28.839-19.426
			c18.714,0,28.072,6.207,28.072,18.62V130.671L1583.786,130.671z"/>
		<path style="fill:#FFFFFF;" d="M1645.854,142.979h-32.543v21.4c0,3.107,1.401,4.66,4.204,4.66c2.746,0,4.121-1.549,4.121-4.653
			v-18.448h24.218v18.703c0,12.418-9.504,18.625-28.509,18.625c-18.835,0-28.254-6.475-28.254-19.426v-55.104
			c0-12.952,9.419-19.426,28.254-19.426c19.005,0,28.509,6.21,28.509,18.629V142.979L1645.854,142.979z M1621.637,129.174v-21.112
			c0-3.016-1.375-4.525-4.121-4.525c-2.803,0-4.205,1.51-4.205,4.525v21.112H1621.637L1621.637,129.174z"/>
		<path style="fill:#FFFFFF;" d="M1675.4,179.857v21.58h-24.224V90.014h18.335l2.045,3.655c3.983-2.905,8.708-4.359,14.172-4.359
			c5.521,0,10.625,1.297,15.316,3.884c4.696,2.591,7.045,6.318,7.045,11.179V170.5c0,3.861-1.708,6.953-5.121,9.277
			c-3.417,2.324-7.567,3.488-12.464,3.488C1683.733,183.268,1678.696,182.128,1675.4,179.857L1675.4,179.857z M1683.875,164.83
			v-57.085c0-2.803-1.402-4.208-4.195-4.208c-2.854,0-4.277,1.405-4.277,4.208v57.245c0,2.699,1.425,4.049,4.277,4.049
			C1682.473,169.039,1683.875,167.639,1683.875,164.83L1683.875,164.83z"/>
		<path style="fill:#FFFFFF;" d="M1761.531,181.999h-15.353c-10.974,0-17.543-1.532-19.701-4.601
			c-2.163-3.068-3.243-8.965-3.243-17.694v-56.167h-10.896V90.014h10.896V71.419h24.222v18.594h13.224v13.523h-13.224v56.006
			c0,2.697,0.87,4.51,2.616,5.433c1.743,0.926,5.563,1.387,11.459,1.387V181.999L1761.531,181.999z"/>
		<path style="fill:#FFFFFF;" d="M1765.862,144.995h24.221v19.394c0,3.103,1.411,4.65,4.237,4.65c2.822,0,4.235-2.947,4.235-8.846
			c0-7.771-1.688-12.791-5.062-15.063c-12.756-6.187-20.448-10.505-23.077-12.964c-2.633-2.457-3.949-6.144-3.949-11.061v-12.369
			c0-12.952,9.463-19.426,28.391-19.426c18.409,0,27.613,6.207,27.613,18.62v18.145h-23.61l0.511-11.031
			c0-7.67-1.571-11.507-4.707-11.507c-3.156,0-4.734,2.421-4.734,7.259c0,4.969,0.671,8.722,2.015,11.26
			c1.339,2.537,8.795,6.898,22.365,13.081c5.646,3.754,8.469,8.723,8.469,14.908v13.796c0,12.951-9.587,19.427-28.753,19.427
			c-18.775,0-28.161-6.209-28.161-18.621v-19.65L1765.862,144.995L1765.862,144.995z"/>
	</g>
</g>
<g id="&#x56FE;&#x5C42;_2">
	<g style="enable-background:new    ;">
		<path style="fill:#9C9C9C;" d="M309.426,136.738v33.773h-11.393V86.309h32.213c8.983,0,15.961,2.313,20.935,6.94
			c4.974,4.626,7.46,10.719,7.46,18.275c0,7.673-2.486,13.793-7.46,18.362c-4.973,4.569-11.952,6.853-20.935,6.853H309.426
			L309.426,136.738z M309.426,127.774h20.82c5.706,0,9.966-1.529,12.781-4.59c2.814-3.059,4.222-6.917,4.222-11.574
			c0-4.656-1.417-8.544-4.25-11.662c-2.834-3.118-7.084-4.676-12.752-4.676h-20.82V127.774z"/>
		<path style="fill:#9C9C9C;" d="M368.356,138.646c0-9.253,2.506-16.877,7.518-22.872c5.011-5.995,11.817-8.993,20.415-8.993
			c8.675,0,15.528,2.988,20.559,8.963c5.032,5.977,7.547,13.611,7.547,22.902v1.272c0,9.33-2.507,16.965-7.518,22.901
			c-5.012,5.938-11.836,8.906-20.472,8.906c-8.637,0-15.47-2.978-20.501-8.935c-5.031-5.957-7.547-13.58-7.547-22.873V138.646
			L368.356,138.646z M379.75,139.889c0,6.623,1.396,12.093,4.192,16.404c2.794,4.313,6.949,6.47,12.463,6.47
			c5.437,0,9.561-2.156,12.376-6.47c2.814-4.312,4.222-9.781,4.222-16.404v-1.271c0-6.546-1.417-11.994-4.251-16.346
			c-2.833-4.351-6.989-6.527-12.463-6.527c-5.436,0-9.552,2.176-12.347,6.527c-2.796,4.352-4.192,9.8-4.192,16.346V139.889z"/>
		<path style="fill:#9C9C9C;" d="M454.353,147.727l1.331,7.575h0.347l1.62-7.575l12.492-39.789h9.138l12.55,39.789l1.793,8.443
			h0.347l1.677-8.443l9.832-39.789h11.335l-18.16,62.574h-9.195L477.37,132.4l-2.603-10.641l-0.348,0.058l-2.486,10.583
			l-11.913,38.111h-9.196l-18.159-62.574h11.334L454.353,147.727z"/>
		<path style="fill:#9C9C9C;" d="M553.94,171.727c-8.713,0-15.644-2.9-20.791-8.704c-5.147-5.802-7.721-13.33-7.721-22.583v-2.545
			c0-8.906,2.65-16.317,7.952-22.237c5.301-5.917,11.575-8.876,18.824-8.876c8.443,0,14.824,2.544,19.142,7.633
			c4.317,5.089,6.478,11.876,6.478,20.357v7.113h-40.598l-0.174,0.288c0.116,5.999,1.638,10.931,4.569,14.793
			c2.93,3.864,7.036,5.796,12.318,5.796c3.854,0,7.238-0.55,10.149-1.648c2.911-1.1,5.426-2.611,7.547-4.54l4.453,7.411
			c-2.236,2.211-5.187,4.055-8.848,5.528C563.578,170.989,559.145,171.727,553.94,171.727z M552.205,115.745
			c-3.817,0-7.075,1.605-9.774,4.813c-2.698,3.208-4.357,7.233-4.973,12.074l0.115,0.289h28.858v-1.497
			c0-4.458-1.195-8.186-3.586-11.183C560.455,117.244,556.908,115.745,552.205,115.745z"/>
		<path style="fill:#9C9C9C;" d="M620.215,118l-5.841-0.347c-3.007,0-5.543,0.714-7.605,2.14c-2.063,1.427-3.653,3.433-4.771,6.015
			v44.704h-11.393v-62.574h10.178l1.099,9.138c1.772-3.239,3.961-5.763,6.564-7.576c2.603-1.812,5.599-2.718,8.992-2.718
			c0.848,0,1.657,0.068,2.429,0.202c0.771,0.136,1.406,0.28,1.909,0.434L620.215,118z"/>
		<path style="fill:#9C9C9C;" d="M656.071,171.727c-8.714,0-15.644-2.9-20.791-8.704c-5.147-5.802-7.721-13.33-7.721-22.583v-2.545
			c0-8.906,2.65-16.317,7.952-22.237c5.3-5.917,11.575-8.876,18.825-8.876c8.443,0,14.824,2.544,19.142,7.633
			c4.317,5.089,6.477,11.876,6.477,20.357v7.113h-40.598l-0.174,0.288c0.116,5.999,1.638,10.931,4.569,14.793
			c2.929,3.864,7.035,5.796,12.319,5.796c3.854,0,7.237-0.55,10.149-1.648c2.911-1.1,5.426-2.611,7.546-4.54l4.454,7.411
			c-2.237,2.211-5.186,4.055-8.849,5.528C665.709,170.989,661.276,171.727,656.071,171.727z M654.336,115.745
			c-3.816,0-7.076,1.605-9.773,4.813c-2.699,3.208-4.358,7.233-4.974,12.074l0.116,0.289h28.858v-1.497
			c0-4.458-1.196-8.186-3.586-11.183C662.586,117.244,659.04,115.745,654.336,115.745z"/>
		<path style="fill:#9C9C9C;" d="M690.134,140.381c0-10.062,2.148-18.177,6.448-24.347c4.299-6.168,10.323-9.253,18.073-9.253
			c3.662,0,6.911,0.675,9.745,2.023c2.834,1.35,5.252,3.316,7.258,5.899v-34.41h11.394v90.218h-9.311l-1.33-7.691
			c-2.045,2.931-4.55,5.147-7.519,6.65c-2.97,1.503-6.419,2.256-10.352,2.256c-7.633,0-13.611-2.766-17.928-8.3
			c-4.318-5.531-6.477-12.81-6.477-21.831L690.134,140.381L690.134,140.381z M701.527,141.596c0,6.324,1.291,11.385,3.875,15.181
			c2.582,3.8,6.593,5.697,12.029,5.697c3.392,0,6.246-0.771,8.559-2.313c2.313-1.541,4.202-3.701,5.667-6.478v-29.205
			c-1.465-2.582-3.364-4.636-5.696-6.159c-2.333-1.523-5.138-2.285-8.415-2.285c-5.475,0-9.514,2.256-12.116,6.767
			c-2.602,4.511-3.904,10.373-3.904,17.582V141.596z"/>
		<path style="fill:#9C9C9C;" d="M842.927,141.596c0,9.022-2.169,16.301-6.506,21.832c-4.337,5.533-10.305,8.299-17.899,8.299
			c-4.126,0-7.712-0.801-10.757-2.4c-3.046-1.598-5.572-3.961-7.576-7.083l-1.388,8.269h-9.311V80.294h11.394v35.046
			c1.965-2.776,4.403-4.895,7.315-6.362c2.911-1.465,6.312-2.197,10.208-2.197c7.71,0,13.725,3.085,18.043,9.253
			c4.317,6.169,6.478,14.285,6.478,24.347L842.927,141.596L842.927,141.596z M831.534,140.381c0-7.17-1.321-13.021-3.961-17.551
			c-2.642-4.53-6.661-6.795-12.058-6.795c-3.509,0-6.468,0.858-8.877,2.574c-2.41,1.716-4.329,4.02-5.753,6.911v27.123
			c1.464,3.086,3.382,5.495,5.753,7.23c2.371,1.734,5.368,2.603,8.993,2.603c5.357,0,9.349-1.908,11.971-5.726
			c2.622-3.816,3.932-8.866,3.932-15.151L831.534,140.381L831.534,140.381z"/>
		<path style="fill:#9C9C9C;" d="M875.312,147.321l2.023,7.865h0.348l15.382-47.249h12.666l-26.313,72.175
			c-1.582,4.201-3.846,7.865-6.795,10.988c-2.95,3.123-6.931,4.684-11.943,4.684c-0.925,0-2.103-0.106-3.528-0.317
			c-1.427-0.213-2.526-0.415-3.296-0.607l1.157-8.963c-0.231-0.04,0.452,0,2.052,0.114c1.599,0.116,2.611,0.174,3.037,0.174
			c2.428,0,4.414-1.08,5.957-3.238c1.541-2.16,2.833-4.551,3.874-7.172l2.718-6.535l-23.248-61.302h12.723L875.312,147.321z"/>
	</g>
</g>
</svg>
