<?xml version="1.0" encoding="UTF-8" standalone="no"?>
<svg width="200px" height="200px" viewBox="0 0 200 200" version="1.1" xmlns="http://www.w3.org/2000/svg" xmlns:xlink="http://www.w3.org/1999/xlink" xmlns:sketch="http://www.bohemiancoding.com/sketch/ns">
    <!-- Generator: Sketch 3.3 (11970) - http://www.bohemiancoding.com/sketch -->
    <title>water heater </title>
    <desc>Created with Sketch.</desc>
    <defs>
        <rect id="path-1" x="0" y="0" width="200" height="200"></rect>
        <linearGradient x1="41.715072%" y1="100%" x2="60.9101015%" y2="22.8670009%" id="linearGradient-3">
            <stop stop-color="#000000" stop-opacity="0" offset="0%"></stop>
            <stop stop-color="#000000" stop-opacity="0.1" offset="100%"></stop>
        </linearGradient>
    </defs>
    <g id="Page-1" stroke="none" stroke-width="1" fill="none" fill-rule="evenodd" sketch:type="MSPage">
        <g id="water-heater-" sketch:type="MSLayerGroup">
            <mask id="mask-2" sketch:name="Rectangle 186" fill="white">
                <use xlink:href="#path-1"></use>
            </mask>
            <use id="Rectangle-186" stroke="#8BC34A" stroke-width="0.1" sketch:type="MSShapeGroup" xlink:href="#path-1"></use>
            <rect id="Rectangle-188" sketch:type="MSShapeGroup" mask="url(#mask-2)" x="0" y="190" width="200" height="10"></rect>
            <path d="M47.1789265,23.4307859 L152.075186,133.905638 L58.4594727,254.348144 L-54.6881104,153.873292 L47.1789265,23.4307859 Z" id="Rectangle-30" fill="url(#linearGradient-3)" sketch:type="MSShapeGroup" mask="url(#mask-2)"></path>
            <g id="Group" mask="url(#mask-2)" sketch:type="MSShapeGroup">
                <g transform="translate(47.500000, 18.750000)">
                    <path d="M74.3615723,107.5 L76.8615723,107.5 L76.8615723,132.5 L74.3615723,137.5 L74.3615723,107.5 Z" id="Rectangle-24" stroke="none" fill="#D8D8D8"></path>
                    <path d="M31.875,107.5 L29.375,107.5 L29.375,132.5 L31.875,137.5 L31.875,107.5 Z" id="Rectangle-25" stroke="none" fill="#D8D8D8"></path>
                    <path d="M0,4.55882353 L2.60878222,1.51802223 C3.32805059,0.6796417 4.81137237,1.26532771e-16 5.90847055,1.26532771e-16 L100.785255,1.26532771e-16 C101.888354,1.26532771e-16 103.324375,0.712316176 103.995324,1.59445524 L106.25,4.55882353 L106.25,113.248098 C106.25,114.906002 104.906607,116.25 103.241294,116.25 L3.00870567,116.25 C1.34704341,116.25 0,114.898046 0,113.248098 L0,4.55882353 Z" id="Rectangle-21" stroke="none" fill="#FFFFFF"></path>
                    <path d="M0,5 L2.67362595,1.58203125 C3.35708212,0.708299517 4.81137237,1.38777878e-16 5.90847055,1.38777878e-16 L100.785255,1.38777878e-16 C101.888354,1.38777878e-16 103.294221,0.73776722 103.917952,1.637187 L106.25,5 L0,5 Z" id="Rectangle-23" stroke="none" fill="#D8D8D8"></path>
                    <path d="M31.875,107.5 L74.375,107.5 L74.375,137.5 C74.375,137.5 74.375,141.25 53.0493164,141.25 C31.7236328,141.25 31.875,137.5 31.875,137.5 L31.875,107.5 Z" id="Rectangle-22" stroke="none" fill="#FFFFFF"></path>
                    <path d="M53.125,63.75 C65.2062289,63.75 75,53.9562289 75,41.875 C75,29.7937711 65.2062289,20 53.125,20 C41.0437711,20 31.25,29.7937711 31.25,41.875 C31.25,53.9562289 41.0437711,63.75 53.125,63.75 Z" id="Oval-2" stroke="#95A5A6" stroke-width="1" fill="#ECF0F1"></path>
                    <path d="M71.2394261,42.5 C71.2464565,42.2925321 71.25,42.0841799 71.25,41.875 C71.25,31.8648389 63.1351611,23.75 53.125,23.75 C43.1148389,23.75 35,31.8648389 35,41.875 C35,41.9843237 35.0009679,42.0934213 35.0028956,42.2022847 L35.0028956,42.2022847 C35.1614948,34.0554282 41.8151963,27.5 50,27.5 C58.2842712,27.5 65,34.2157288 65,42.5 L71.2394261,42.5 Z" id="Oval-3" stroke="none" fill="#E74C3C"></path>
                    <path d="M53.125,45 C54.8508898,45 56.25,43.6008898 56.25,41.875 C56.25,40.1491102 54.8508898,38.75 53.125,38.75 C52.3280464,38.75 42.7614888,30.6002373 42.2094727,31.0913086 C41.5660377,31.6637058 50,40.9460637 50,41.875 C50,43.6008898 51.3991102,45 53.125,45 Z" id="Oval-5" stroke="none" fill="#2C3E50"></path>
                    <path d="M46.3888395,91.5725723 C46.6394409,92.3190892 46.9891692,92.9730713 47.4146347,93.5324392 C47.8144832,94.0928467 48.3646926,94.606467 48.9895256,95.1200873 C49.6143585,95.6097941 50.2636947,96.0527137 50.9141447,96.4259721 C51.5645946,96.7763568 52.3141714,97.1496153 53.1639887,97.5 L53.1394855,97.4771262 L53.1896058,97.5 C52.563659,96.3802246 52.2640511,95.422645 52.2640511,94.5825535 C52.2640511,94.139634 52.3642917,93.7195883 52.6137793,93.3224163 C52.8387637,92.9262841 53.1394855,92.5758994 53.4892137,92.2723019 C53.864559,91.9458307 54.2644075,91.6422333 54.7143763,91.3157621 C55.1643451,91.0121647 55.6143139,90.6856935 56.0642828,90.312435 C56.4886345,89.9620503 56.9141001,89.5648784 57.2638283,89.1687461 C57.6391736,88.7715741 57.9387816,88.2818673 58.163766,87.698586 C58.3887504,87.1381784 58.514608,86.5081098 58.514608,85.8312539 C58.514608,84.9911624 58.3887504,84.1739447 58.1392627,83.4274277 C57.864158,82.6809108 57.538933,82.0269287 57.1145813,81.4675608 C56.6891157,80.9071533 56.1645233,80.393533 55.5385766,79.8799127 C54.8892404,79.3673321 54.2387905,78.9472863 53.5894543,78.5740279 C52.9390043,78.2236432 52.2139308,77.8503847 51.3641135,77.5 L51.3886167,77.5 L51.3396102,77.5 C51.9644431,78.6197754 52.2640511,79.6002287 52.2640511,80.4174465 C52.2640511,80.860366 52.1393073,81.2804117 51.9143229,81.6775837 C51.6893384,82.0737159 51.3886167,82.4241006 51.0143852,82.7276981 C50.664657,83.0541693 50.2391914,83.3577667 49.8137259,83.6613641 C49.3637571,83.9878353 48.9137882,84.3143065 48.4638194,84.687565 C48.0138506,85.0379497 47.6140021,85.4112082 47.2397706,85.8312539 C46.8889286,86.2284259 46.5893206,86.7181327 46.3643362,87.2785402 C46.1137348,87.8618216 46.014608,88.4918902 46.014608,89.1687461 C46.014608,90.0088376 46.1393518,90.8260553 46.3888395,91.5725723 L46.3888395,91.5725723 Z" id="Fill-125" stroke="none" fill="#E74C3C"></path>
                    <path d="M58.7504577,133.75 C57.6101998,135.268058 55.7947723,136.25 53.75,136.25 C51.7052277,136.25 49.8898002,135.268058 48.7495423,133.75 L38.75,133.75 L38.75,127.5 L48.0200546,127.5 C48.9845004,125.292619 51.1871012,123.75 53.75,123.75 C56.3128988,123.75 58.5154996,125.292619 59.4799454,127.5 L70,127.5 L70,133.75 L58.7504577,133.75 Z" id="Oval-6" stroke="none" fill="#D35400"></path>
                </g>
            </g>
        </g>
    </g>
</svg>