<?xml version="1.0" encoding="UTF-8" standalone="no"?>
<svg width="52px" height="33px" viewBox="0 0 52 33" version="1.1" xmlns="http://www.w3.org/2000/svg" xmlns:xlink="http://www.w3.org/1999/xlink" xmlns:sketch="http://www.bohemiancoding.com/sketch/ns">
    <!-- Generator: Sketch 3.3 (11970) - http://www.bohemiancoding.com/sketch -->
    <title>Windy</title>
    <desc>Created with Sketch.</desc>
    <defs></defs>
    <g id="Dashboard-V4.0-" stroke="none" stroke-width="1" fill="none" fill-rule="evenodd" sketch:type="MSPage">
        <g id="01.01-Dashboard---Desktop" sketch:type="MSArtboardGroup" transform="translate(-143.000000, -395.000000)" fill="#FFFFFF">
            <g id="Good-evening--+-Button-+-Weather" sketch:type="MSLayerGroup" transform="translate(10.000000, 239.500000)">
                <g id="Weather" transform="translate(7.000000, 156.000000)" sketch:type="MSShapeGroup">
                    <g id="Windy" transform="translate(126.000000, 0.000000)">
                        <path d="M9.9047619,12.3076923 L34.6666598,12.3076923 L34.6666667,12.3076923 C38.0855724,12.3076923 40.8571429,9.55252171 40.8571429,6.15384615 C40.8571429,2.7551706 38.0855724,0 34.6666667,0 C31.2477609,0 28.4761905,2.7551706 28.4761905,6.15384615 L28.4761905,6.15384615 C28.4761905,6.83358126 29.0305046,7.38461538 29.7142857,7.38461538 C30.3980669,7.38461538 30.952381,6.83358126 30.952381,6.15384615 C30.952381,4.11464082 32.6153232,2.46153846 34.6666667,2.46153846 C36.7180101,2.46153846 38.3809524,4.11464082 38.3809524,6.15384615 C38.3809524,8.19305148 36.7180101,9.84615385 34.6666667,9.84615385 L29.0950114,9.84615385 L29.0950114,9.84615385 L9.9047619,9.84615385 C9.22098075,9.84615385 8.66666667,10.397188 8.66666667,11.0769231 C8.66666667,11.7566582 9.22098075,12.3076923 9.9047619,12.3076923 Z" id="Rectangle-64"></path>
                        <path d="M6.19047619,29.5384615 L27.2380952,29.5384615 L27.2380952,29.5384615 C29.9732198,29.5384615 32.1904762,27.3343251 32.1904762,24.6153846 C32.1904762,21.8964442 29.9732198,19.6923077 27.2380952,19.6923077 C24.5029706,19.6923077 22.2857143,21.8964442 22.2857143,24.6153846 L22.2857143,24.6153846 C22.2857143,25.2951197 22.8400284,25.8461538 23.5238095,25.8461538 C24.2075907,25.8461538 24.7619048,25.2951197 24.7619048,24.6153846 C24.7619048,23.2559144 25.8705329,22.1538462 27.2380952,22.1538462 C28.6056575,22.1538462 29.7142857,23.2559144 29.7142857,24.6153846 C29.7142857,25.9748548 28.6056575,27.0769231 27.2380952,27.0769231 L21.9979368,27.0769231 L21.9979368,27.0769231 L6.19047619,27.0769231 C5.50669504,27.0769231 4.95238095,27.6279572 4.95238095,28.3076923 C4.95238095,28.9874274 5.50669504,29.5384615 6.19047619,29.5384615 Z" id="Rectangle-64" transform="translate(18.571429, 24.615385) scale(1, -1) translate(-18.571429, -24.615385) "></path>
                        <path d="M1.23809524,14.7692308 L43.3333333,14.7692308 C48.1198014,14.7692308 52,18.6264696 52,23.3846154 C52,28.1427612 48.1198014,32 43.3333333,32 C38.5468653,32 34.6666667,28.1427612 34.6666667,23.3846154 C34.6666667,21.8485083 35.0710763,20.4062973 35.7798306,19.1574551 L35.7798306,19.1574551 C35.7891782,19.1382266 35.7990143,19.1192766 35.8093226,19.100621 L35.8093229,19.1006204 C36.0197972,18.7197137 36.4271806,18.4615385 36.895223,18.4615385 C37.5790041,18.4615385 38.1333182,19.0125726 38.1333182,19.6923077 C38.1333182,19.9351512 38.0625677,20.1615678 37.9404396,20.3522993 C37.9418936,20.3525917 37.9433553,20.3528841 37.9448245,20.3531765 L37.9448245,20.3531765 C37.4343278,21.2479717 37.1428571,22.2824566 37.1428571,23.3846154 C37.1428571,26.7832909 39.9144276,29.5384615 43.3333333,29.5384615 C46.7522391,29.5384615 49.5238095,26.7832909 49.5238095,23.3846154 C49.5238095,19.9859398 46.7522391,17.2307692 43.3333333,17.2307692 L35.3482487,17.2307692 L35.3482487,17.2307692 L1.23809524,17.2307692 C0.554314085,17.2307692 0,16.6797351 0,16 C0,15.3202649 0.554314085,14.7692308 1.23809524,14.7692308 Z" id="Rectangle-64"></path>
                    </g>
                </g>
            </g>
        </g>
    </g>
</svg>